<svg xmlns="http://www.w3.org/2000/svg" version="1.1" xmlns:xlink="http://www.w3.org/1999/xlink" width="1500" height="255" viewBox="0 0 1500 255"><svg xml:space="preserve" width="1500" height="255" data-version="2" data-id="lg_G318MpYiAPF5txqWs1" viewBox="0 0 531 255" x="0" y="0"><rect width="100%" height="100%" fill="transparent"></rect><path d="M21.21 96.32q7.58 0 12.51 1.83t7.33 5.52q2.4 3.7 2.4 9.33 0 3.81-1.44 6.67-1.45 2.85-3.81 4.83-2.36 1.99-5.11 3.24L49.47 152h-13.1l-13.29-21.36h-6.29V152H4.99V96.32Zm-.84 9.68h-3.58v15.04h3.81q5.87 0 8.4-1.96 2.53-1.96 2.53-5.77 0-3.96-2.72-5.64-2.72-1.67-8.44-1.67"></path><rect width="44.48" height="55.68" x="-22.24" y="-27.84" fill="none" rx="0" ry="0" transform="translate(27.73 124.66)"></rect><path d="M67.18 109.42V152H55.56v-42.58Zm-5.79-16.68q2.59 0 4.46 1.2 1.86 1.2 1.86 4.48 0 3.23-1.86 4.47-1.87 1.24-4.46 1.24-2.63 0-4.47-1.24-1.85-1.24-1.85-4.47 0-3.28 1.85-4.48 1.84-1.2 4.47-1.2"></path><rect width="12.64" height="59.26" x="-6.32" y="-29.63" fill="none" rx="0" ry="0" transform="translate(61.89 122.87)"></rect><path d="M92.85 152.76q-7.12 0-11.6-5.57-4.47-5.58-4.47-16.4 0-10.93 4.53-16.55 4.53-5.62 11.85-5.62 3.04 0 5.37.84 2.32.84 4.01 2.25 1.7 1.41 2.88 3.16h.38q-.23-1.22-.55-3.6-.33-2.38-.33-4.89V92.74h11.66V152h-8.91l-2.25-5.52h-.5q-1.1 1.75-2.76 3.18-1.65 1.43-3.94 2.27-2.28.83-5.37.83m4.08-9.25q4.76 0 6.72-2.84t2.07-8.55v-1.25q0-6.21-1.9-9.51-1.9-3.29-7.08-3.29-3.85 0-6.02 3.31-2.17 3.32-2.17 9.56 0 6.25 2.19 9.41t6.19 3.16"></path><rect width="39.8" height="60.02" x="-19.9" y="-30.01" fill="none" rx="0" ry="0" transform="translate(97.18 123.25)"></rect><path d="M146.29 108.62q5.9 0 10.16 2.27 4.27 2.27 6.59 6.57 2.33 4.3 2.33 10.51v5.64h-27.46q.19 4.91 2.95 7.71 2.76 2.8 7.67 2.8 4.08 0 7.47-.84 3.39-.84 6.97-2.51v8.99q-3.16 1.56-6.61 2.28-3.45.72-8.36.72-6.4 0-11.33-2.36t-7.73-7.19q-2.8-4.84-2.8-12.19 0-7.47 2.53-12.44t7.07-7.46q4.53-2.5 10.55-2.5m.07 8.27q-3.39 0-5.62 2.17-2.22 2.17-2.57 6.82h16.3q-.03-2.59-.93-4.61-.89-2.02-2.67-3.2-1.77-1.18-4.51-1.18"></path><rect width="39.23" height="44.14" x="-19.61" y="-22.07" fill="none" rx="0" ry="0" transform="translate(146.25 131.19)"></rect><path d="M390.15 152h-32.07V96.32h32.07V106h-20.26v12.22h18.85v9.67h-18.85v14.36h20.26Z"></path><rect width="32.07" height="55.68" x="-16.04" y="-27.84" fill="none" rx="0" ry="0" transform="translate(374.62 124.66)"></rect><path d="M418.3 108.55q8.56 0 13.13 3.73t4.57 11.35V152h-8.11l-2.24-5.79h-.31q-1.83 2.29-3.73 3.74-1.91 1.44-4.38 2.13-2.48.68-6.02.68-3.77 0-6.76-1.44-2.99-1.45-4.7-4.44-1.72-2.99-1.72-7.6 0-6.78 4.76-10 4.76-3.21 14.29-3.56l7.38-.22v-1.87q0-3.35-1.75-4.91-1.75-1.57-4.87-1.57-3.09 0-6.06.88-2.97.88-5.94 2.21l-3.85-7.85q3.39-1.79 7.6-2.81 4.21-1.03 8.71-1.03m6.16 23.72-4.49.16q-5.64.15-7.83 2.02-2.19 1.86-2.19 4.91 0 2.66 1.57 3.79 1.56 1.12 4.07 1.12 3.73 0 6.3-2.21t2.57-6.28Z"></path><rect width="37.97" height="44.21" x="-18.98" y="-22.11" fill="none" rx="0" ry="0" transform="translate(417.51 131.16)"></rect><path d="M477.67 139.36q0 4.34-2.04 7.33-2.03 2.99-6.07 4.53-4.04 1.54-10.06 1.54-4.45 0-7.63-.57-3.18-.57-6.42-1.9v-9.6q3.47 1.56 7.45 2.57 3.98 1.01 6.98 1.01 3.39 0 4.86-1.01 1.47-1.01 1.47-2.64 0-1.07-.59-1.93-.59-.86-2.54-1.94-1.94-1.09-6.09-2.84-4-1.67-6.57-3.39-2.57-1.71-3.81-4.05-1.24-2.35-1.24-5.96 0-5.91 4.59-8.9t12.29-2.99q3.96 0 7.56.8 3.6.8 7.4 2.55l-3.5 8.38q-3.16-1.37-5.96-2.24-2.8-.88-5.69-.88-2.56 0-3.85.69-1.3.68-1.3 2.09 0 1.03.67 1.83t2.59 1.77q1.92.97 5.66 2.49 3.61 1.49 6.28 3.11 2.67 1.62 4.11 4 1.45 2.38 1.45 6.15"></path><rect width="32.3" height="44.14" x="-16.15" y="-22.07" fill="none" rx="0" ry="0" transform="translate(462.02 131.19)"></rect><path d="M480.64 109.42h12.72l8.04 23.96q.38 1.14.65 2.32.26 1.18.45 2.44t.31 2.63h.23q.22-2.06.62-3.85t1.01-3.54l7.89-23.96h12.45L507 157.45q-1.64 4.42-4.27 7.37t-6.04 4.44q-3.4 1.48-7.48 1.48-1.98 0-3.43-.21-1.44-.21-2.47-.44v-9.21q.8.19 2.02.34 1.22.15 2.55.15 2.44 0 4.19-1.03 1.75-1.02 2.93-2.76 1.18-1.73 1.87-3.79l.68-2.09Z"></path><rect width="44.37" height="61.32" x="-22.18" y="-30.66" fill="none" rx="0" ry="0" transform="translate(503.32 140.58)"></rect><path fill="#fcc233" d="M366.433 19.14c-.935-3.692-4.724-5.955-8.415-5.02-1.28.344-18.749 4.872-39.073 13.926-6.79-10.088-15.009-18.503-24.359-24.457-1.131-.69-2.41-1.083-3.74-1.083h-58.904c-1.329 0-2.608.394-3.74 1.083-9.35 5.954-17.568 14.37-24.359 24.457-20.324-9.054-37.793-13.582-39.073-13.926a6.93 6.93 0 0 0-8.415 5.02 6.93 6.93 0 0 0 5.02 8.414c.295.099 16.485 4.281 35.431 12.549-8.907 17.764-14.025 39.072-14.025 61.463 0 45.667 21.21 86.56 52.114 101.717v22.735c0 14.566 11.86 26.475 26.475 26.475 14.615 0 26.475-11.86 26.475-26.475v-22.735c30.903-15.157 52.113-56.05 52.113-101.717 0-22.341-5.118-43.699-13.976-61.414 18.946-8.317 35.136-12.5 35.432-12.598 3.69-.886 5.954-4.675 5.019-8.415m-132.424-2.757h54.721c6.595 4.528 12.5 10.58 17.618 17.765-11.466 6.004-23.03 13.435-32.43 22.292-3.887-1.574-8.07-2.46-12.5-2.46s-8.66.886-12.499 2.46c-9.399-8.857-20.963-16.288-32.429-22.292 5.02-7.184 10.925-13.237 17.519-17.765m46.848 70.961c0 10.728-8.71 19.438-19.438 19.438s-19.438-8.71-19.438-19.438 8.71-19.438 19.438-19.438 19.438 8.71 19.438 19.438m-6.939 138.674c0 6.939-5.659 12.549-12.548 12.549-6.939 0-12.549-5.66-12.549-12.549v-56.001c0-6.939 5.66-12.549 12.549-12.549 6.938 0 12.548 5.66 12.548 12.549zm52.163-124.403c0 37.301-15.305 70.715-38.236 85.773v-17.371c0-14.566-11.86-26.475-26.475-26.475-14.567 0-26.475 11.86-26.475 26.475v17.371c-22.932-15.058-38.237-48.52-38.237-85.822 0-20.373 4.577-39.713 12.549-55.509 9.891 5.069 19.733 11.22 27.902 18.405-5.61 5.954-9.104 13.975-9.104 22.833 0 18.405 14.96 33.364 33.365 33.364s33.364-14.96 33.364-33.364c0-8.858-3.494-16.83-9.104-22.833 8.169-7.185 18.011-13.336 27.902-18.405 7.972 15.846 12.549 35.185 12.549 55.558"></path></svg></svg>